<?xml version="1.0" encoding="utf-8"?>
<!-- Generator: Adobe Illustrator 19.0.0, SVG Export Plug-In . SVG Version: 6.00 Build 0)  -->
<svg version="1.1" id="Camada_1" xmlns="http://www.w3.org/2000/svg" xmlns:xlink="http://www.w3.org/1999/xlink" x="0px" y="0px"
	 width="85px" height="85px" viewBox="-263 354 85 85" style="enable-background:new -263 354 85 85;" xml:space="preserve">
<style type="text/css">
	.st0{fill:#A5D9E7;}
	.st1{fill:none;}
	.st2{fill:#FF3333;stroke:#FF3333;stroke-miterlimit:10;}
	.st3{fill:#FF3333;stroke:#CC9966;stroke-miterlimit:10;}
	.st4{fill:#2F2F2F;}
	.st5{fill:#CC9966;}
	.st6{fill:none;stroke:#FFFFFF;stroke-miterlimit:10;}
	.st7{fill:#1C1B1D;}
	.st8{fill:#E4ECEE;stroke:#000000;stroke-miterlimit:10;}
	.st9{fill:#E4ECEE;stroke:#231F20;stroke-miterlimit:10;}
	.st10{fill:#9C9B9C;}
	.st11{fill:#FEFEFE;}
	.st12{fill:#FDFDFD;}
	.st13{fill:#F5F5F5;}
	.st14{fill:#787878;}
	.st15{fill:#F2C2A3;}
	.st16{fill:#ECF4F6;}
	.st17{fill:#E4ECEE;}
	.st18{fill:#D2DADB;}
	.st19{fill:#E3EBED;}
	.st20{fill:#8D9395;}
	.st21{fill:#F3FBFD;}
	.st22{fill:#FED3B2;}
	.st23{fill:#C57C6C;}
	.st24{fill:#FAFEFE;}
	.st25{fill:#B6BDBE;}
	.st26{fill:#D1D8DA;}
	.st27{fill:#FEDEBC;}
	.st28{fill:#FEDDBB;}
	.st29{fill:#BFC6C7;}
	.st30{fill:#BCC3C5;}
	.st31{fill:#D3DBDD;}
	.st32{fill:#8F9597;}
	.st33{fill:#7B8081;}
	.st34{fill:#A5ABAC;}
	.st35{fill:#ADB0B1;}
	.st36{fill:#888E8F;}
	.st37{fill:#262728;}
	.st38{fill:#C67D6D;}
	.st39{fill:#A6ACAE;}
	.st40{fill:#A0A6A7;}
	.st41{fill:#7E8485;}
	.st42{fill:#989FA0;}
	.st43{fill:#F1F1F1;}
	.st44{fill:#686B6C;}
	.st45{fill:#878B8D;}
	.st46{fill:#686A6C;}
	.st47{fill:#9FA5A6;}
	.st48{fill:#5F5F60;}
	.st49{fill:#5F6163;}
	.st50{fill:#6C6E70;}
	.st51{fill:#5E6062;}
	.st52{fill:#888C8E;}
	.st53{fill:#7D675A;}
	.st54{fill:#676A6C;}
	.st55{fill:#B4927D;}
	.st56{fill:#C7CED0;}
	.st57{fill:#010101;}
	.st58{fill:#030303;}
	.st59{fill:#020202;}
	.st60{fill:#1C1C1E;}
	.st61{fill:#1C1C1D;}
	.st62{fill:#1D1C1E;}
	.st63{fill:#1C1B1E;}
	.st64{fill:#C27A6B;}
	.st65{fill:#242222;}
	.st66{fill:#282525;}
	.st67{fill:#302B2A;}
	.st68{fill:#B77667;}
	.st69{fill:#796457;}
	.st70{fill:#272929;}
	.st71{fill:#EAF0F2;}
	.st72{fill:#6C6E6E;}
	.st73{fill:#5F6060;}
	.st74{fill:#575959;}
	.st75{fill:#282A2A;}
	.st76{fill:#F0F6F8;}
	.st77{fill:#292B2B;}
	.st78{fill:#D7DDDF;}
	.st79{fill:#D8DEE0;}
	.st80{fill:#878989;}
	.st81{fill:#4A4C4C;}
	.st82{fill:#606262;}
	.st83{fill:#646666;}
	.st84{fill:#626464;}
	.st85{fill:#575858;}
	.st86{fill:#4A4B4D;}
	.st87{fill:#616264;}
</style>
<path id="XMLID_1039_" class="st0" d="M-2532.2,2473.8c-0.1,0-0.2-0.2-0.2-0.4s0.2-0.3,0.4-0.2c0.2,0,0.3,0.2,0.2,0.4
	C-2531.8,2473.8-2532,2473.9-2532.2,2473.8z"/>
<path id="XMLID_829_" class="st1" d="M-2532.4,2486.3"/>
<rect id="XMLID_140_" x="-1976.1" y="2120.6" class="st1" width="77.1" height="14.6"/>
<text transform="matrix(1 0 0 1 -1973.5986 2133.1665)" style="fill:#FFFFFF; font-family:'ArialMT'; font-size:14.4572px;">INFOVOTO</text>
<polygon class="st2" points="-1933.1,2078.9 -1939.3,2070.8 -1936.3,2065.1 -1945.3,2065.1 -1942.3,2070.8 -1948.4,2078.9 
	-1940.7,2112.3 "/>
<polygon class="st3" points="-1942.3,2071.1 -1939.3,2071.1 -1936.3,2065.1 -1945.3,2065.1 "/>
<polygon class="st4" points="-1966.7,2077.9 -1945.6,2113.7 -1955.7,2062.3 "/>
<polygon class="st4" points="-1914.7,2077.9 -1935.8,2113.7 -1925.9,2062.3 "/>
<path class="st5" d="M-2516.3,2457.2"/>
<path class="st6" d="M-1919,2119h-43.5c-6.6,0-12-5.4-12-12v-40.7c0-6.6,5.4-12,12-12h43.5c6.6,0,12,5.4,12,12v40.7
	C-1907,2113.6-1912.4,2119-1919,2119z"/>
<path d="M-207.7,424.6c3.8-1.4,7.2-3.5,10.4-5.9c2.4-1.8,4.6-3.7,6.8-5.8c0.8-0.8,0.8-0.8,1.5,0c2.4,2.5,4.7,5,7.1,7.5
	c0.4,0.4,0.4,0.6,0,1c-5.2,5.7-11.3,10.1-18.4,13.2c-3.4,1.5-7,2.6-10.7,3.4c-2.5,0.5-5.1,0.8-7.6,0.8c-2,0.1-4,0.1-6,0.2
	c-4.9,0.1-9.6-0.7-14.2-2.1c-7-2.1-13.3-5.5-18.9-10.1c-1-0.8-2-1.7-3-2.7c-0.3-0.3-0.4-0.5-0.1-0.9c2.3-2.7,4.5-5.5,6.7-8.2
	c0.4-0.5,0.7-0.5,1.2-0.1c2.9,2.5,6,4.7,9.2,6.7c0.2,0.1,0.4,0.3,0.6,0.4c0.3,0.1,0.5,0.2,0.7,0.5c1.6,2.4,3.9,3.8,6.5,5
	c2.6,1.2,5.4,1.8,8.3,1.8c2.6,0,5.1-0.4,7.7-1c3.4-0.7,6.8-1.6,10.1-3c0.3-0.1,0.7-0.2,1.1-0.3
	C-208.5,424.7-208.1,424.7-207.7,424.6z"/>
<path class="st7" d="M-208.6,425.1c-2.9,1-5.7,2.2-8.7,2.8c-2.1,0.4-4.1,0.9-6.2,1.2c-4.3,0.7-8.5,0.2-12.6-1.6
	c-2-0.9-3.7-2-5.2-3.5c-0.6-0.6-1-1.5-1.7-2.1c0.2-0.3,0-0.4-0.1-0.6c-1.2-3.2-2.1-6.4-1.8-9.8c0.1-1.6,0.4-3.1,0.9-4.6
	c0-1,0.4-1.7,1-2.4c0.6-1.4,1.1-2.8,1.8-4.1c0.7-1.5,1.1-3,1.1-4.7c0-1,0-2-0.1-3.1c0-1.1,0.2-2.2,0.6-3.3c0.7-1.9,1.5-3.9,2.1-5.8
	c1.1-3.6,0.9-7.1-0.2-10.6c-0.4-1.2-0.7-2.5-0.8-3.8c-0.4-2.6,0.6-4.6,2.7-6.1c2.2-1.6,4.1-3.4,5.6-5.8c1.7-2.7,5-3.6,8.2-2.5
	c2.4,0.9,4.4,2.4,6.1,4.3c0.3,0.4,0.7,0.6,1.2,0.7c2.3,0.4,4.5,0.9,6.8,1.3c3.2,0.7,5.6,2.4,7.4,5.1c1.1,1.5,2,3.1,2.7,4.8
	c0.2,0.4,0.4,0.6,0.7,0.9c1.9,1.2,3.4,2.7,4.6,4.6c1.7,2.8,2,5.7,0.5,8.6c-0.2,0.4,0,0.6,0.1,0.9c1.4,3,0.4,7.8-4.3,8.8
	c-2.3,0.5-4.6,0.1-6.5-1.5c-0.2-0.1-0.3-0.3-0.4-0.4c-0.1-0.1-0.3-0.2-0.5-0.4c-0.2,0.9-0.4,1.8-0.6,2.7c0.8-0.2,1.5-0.3,2.3-0.1
	c1.5,0.4,2.6,1.3,3.2,2.8c0.8,2,1,4.2,0.8,6.3c0,0.2-0.2,0.4,0.1,0.6c-0.5,1.6-1.4,2.8-3,3.5c-0.4,0-0.8,0.1-1.1,0.1
	c-0.4,0-0.5,0.2-0.4,0.5c0.1,0.3,0.2,0.5,0.3,0.8c0.1,0.8,0.5,1.6,0.4,2.4c-0.1,0.9,0.1,1.9,0,2.8c-0.6,4.2-2.8,7.4-6.4,9.6
	C-208.1,424.8-208.6,424.7-208.6,425.1z"/>
<path class="st8" d="M-201.6,412c-0.3-0.8-0.5-1.6-0.6-2.5c0.2-0.7,0.7-1.1,1.3-1.5c1.6-0.6,2.4-2,3.1-3.3c0.4-0.5,0.9-1,1.3-1.5
	c0.4-0.4,0.3-0.7,0-1.1c-1.3-1.6-1.3-2.8-0.1-4.5c1.1-1.4,2.4-2.6,3.7-3.8c3.1-2.9,6.1-5.8,9.2-8.7c0.2-0.2,0.3-0.6,0.6-0.3
	c0.2,0.2,0,0.5-0.2,0.7c-1.1,1.7-2.5,3.2-3.8,4.8c-2.2,2.8-4.5,5.5-6.8,8.2c-0.7,0.8-0.5,1.7,0.3,2.4c1,0.8,1.7,0.8,2.5,0
	c3.4-3.9,6.9-7.9,10.3-11.8c0.3-0.3,0.6-0.6,0.9-0.9c0.1-0.1,0.3-0.3,0.5-0.1c0.1,0.2-0.1,0.3-0.2,0.4c-1.7,2.6-3.4,5.1-5.2,7.7
	c-1.4,2.1-2.9,4.2-4.3,6.3c-0.5,0.7-1.1,1.4-1.9,1.9c-1,0.6-2,0.6-3-0.1c-0.8-0.5-0.9-0.5-1.5,0.2
	C-197.3,407.3-199.3,409.8-201.6,412z"/>
<path class="st9" d="M-243,404.6c-0.3,0.8-0.8,1.5-1,2.4c-0.6-0.8-1.3-1.6-1.9-2.4c-0.3-0.5-0.7-0.6-1.2-0.2
	c-1.5,1.1-3.1,0.6-4.2-0.6c-1.3-1.4-2.3-3.1-3.4-4.7c-2.4-3.5-4.7-7-7-10.4c-0.1-0.2-0.4-0.3-0.2-0.5c0.2-0.2,0.4,0.1,0.6,0.2
	c0.7,0.6,1.3,1.3,1.9,2c3.1,3.5,6.1,7,9.2,10.5c0.8,0.9,1.5,0.9,2.5,0c0.9-0.8,1-1.6,0.3-2.5c-3.3-4.1-6.7-8.1-10-12.2
	c-0.3-0.3-0.5-0.7-0.7-1.1c-0.1-0.2-0.1-0.3,0-0.5c0.1-0.1,0.3,0.1,0.4,0.2c0.8,0.8,1.7,1.6,2.5,2.4c3.2,3,6.3,6,9.4,9.1
	c0.7,0.7,1.3,1.4,1.8,2.2c0.6,1.3,0.5,2.4-0.5,3.4c-0.5,0.5-0.5,0.9,0,1.4c0.4,0.4,0.7,0.8,1.1,1.2
	C-243.3,404.7-243.1,404.7-243,404.6z"/>
<path class="st10" d="M-208.6,425.1c-0.1-0.1-0.3,0-0.2-0.1c0.2-0.2,0.5-0.3,0.8-0.4c0.1,0.1,0.2,0.1,0.3,0.2
	C-208,424.9-208.3,424.9-208.6,425.1z"/>
<path class="st11" d="M-237.5,430.5c0.3-1.2,0.3-1.2,1.5-0.9c0.5,0.1,1,0.2,1.5,0.4c1.1,0.3,1.7,1,1.7,1.9c-0.1,1-0.7,1.6-1.9,1.8
	c0.4,0.7,0.7,1.3,1,2c0.3-0.1,0.4-0.4,0.5-0.6c0.9-1.3,1.7-2.6,2.5-4c0.3-0.4,0.5-0.5,1-0.4c0.4,0,0.6,0.2,0.8,0.6
	c0.5,1.5,1,3.1,1.4,4.6c0.1,0.2,0.4,0.6,0,0.7c-0.3,0.1-1,0.1-1-0.3c-0.2-1.1-1-1-1.7-1.1c-0.3,0-0.6,0-0.9-0.1
	c-0.5-0.1-0.9,0-1.1,0.5c-0.1,0.3-0.4,0.4-0.8,0.4c-1.3,0-2.3-0.5-2.7-1.9c0-0.2-0.2-0.4-0.3-0.5c-0.2-0.3-0.6-0.3-0.9-0.4
	c-0.4,0-0.2,0.4-0.3,0.5c-0.1,0.2-0.2,0.4-0.2,0.6c0,0.6-0.4,0.5-0.8,0.4c-0.5-0.1-0.4-0.4-0.3-0.7c0.2-0.8,0.4-1.5,0.7-2.3
	C-237.8,431.3-237.9,430.8-237.5,430.5z"/>
<path class="st12" d="M-246.3,425.3c-0.7,0.4-1.1,1-1.6,1.6c-0.6,0.5-1.1,1.1-1.6,1.7c-0.3,0.4-0.6,0.3-0.9,0
	c-0.5-0.4-0.1-0.5,0.1-0.8c0.3-0.4,1.1-0.8,1-1.2c-0.1-0.4-0.7-0.7-1.1-1.1c-0.8-0.7-0.8-0.7-1.5,0c-0.2,0.2-0.4,0.3-0.5,0.5
	c-0.3,0.5-0.6,0.2-0.9,0c-0.5-0.3-0.1-0.5,0.1-0.7c0.9-1,1.9-2,2.9-3c-0.5-0.1-0.7-0.3-0.8-0.8c-0.1-0.9-1.1-1.5-1.9-1.4
	c-0.9,0-1.9,0.8-2,1.7c-0.1,0.8,0.4,1.7,1.3,2.1c0.2,0.1,0.5,0,0.5,0.5c0,0.6-0.3,0.7-0.8,0.5c-1.3-0.5-2.3-1.9-2.1-3.2
	c0.2-1.4,1.6-2.6,3.1-2.7c1.3-0.1,2.7,0.9,3,2.3c0.1,0.2,0,0.5,0.5,0.5c0.6,0,0.7,0.6,0.3,1.1c-1.2,1.3-1.2,1.3,0.1,2.4
	c0.8,0.7,0.8,0.7,1.5-0.1c0.1-0.1,0.3-0.3,0.4-0.4c0.6-0.6,0.7-0.6,1.3,0.2C-246,425.1-246,425.3-246.3,425.3z"/>
<path class="st12" d="M-209.7,430.2c0.5,1.2,0.9,2.2,1.3,3.2c0.2,0.4,0.1,0.6-0.3,0.7c-0.4,0.1-0.6,0.3-0.8-0.3
	c-0.5-1.4-1-2.7-1.5-4c-0.1-0.2-0.4-0.6-0.1-0.8c0.4-0.2,0.8-0.6,1.4-0.2c0.7,0.5,1.4,0.9,2.2,1.4c0.2-0.8,0.5-1.6,0.7-2.4
	c0.2-0.7,0.8-0.6,1.2-0.8c0.1-0.1,0.2,0.2,0.3,0.3c0.6,1.5,1.2,3,1.8,4.5c0.2,0.5-0.2,0.4-0.4,0.5c-0.3,0.2-0.5,0.2-0.7-0.2
	c-0.4-1-0.8-2.1-1.3-3.2c-0.4,0.7-0.6,1.5-0.8,2.2c-0.2,0.6-0.4,0.7-0.9,0.3C-208.2,431.1-208.9,430.7-209.7,430.2z"/>
<path class="st12" d="M-238,431.5c-0.4,0.6-1,0.7-1.8,0.7c0.3,0.8,0.5,1.5,0.8,2.4c-0.7-0.2-1.3-0.3-1.5-1.1
	c-0.1-0.5-0.3-0.9-0.4-1.4c-0.1-0.4-0.5-0.5-0.9-0.6c-0.4-0.1-0.3,0.3-0.5,0.5c-0.1,0.2-0.2,0.4-0.3,0.6c-0.1,0.5-0.4,0.4-0.8,0.3
	c-0.5-0.1-0.4-0.3-0.2-0.7c0.7-1.4,1.3-2.8,1.9-4.2c0.1-0.3,0.3-0.4,0.6-0.3c0.7,0.3,1.4,0.6,2.2,0.9c0.8,0.4,1.3,0.9,1.3,1.9
	C-237.7,430.8-237.6,431.3-238,431.5z"/>
<path class="st12" d="M-191.8,423c0.8,0.2,1.6,0.3,2.5,0.5c-0.5,0.5-0.9,1-1.7,0.7c-0.5-0.2-1-0.1-1.4-0.3c-0.5-0.2-0.8,0.2-1.1,0.4
	c-0.2,0.1-0.1,0.2,0,0.4c0.2,0.2,0.4,0.5,0.5,0.7c0.2,0.2,0.6,0.4,0.1,0.8c-0.4,0.3-0.7,0.4-1-0.1c-0.9-1.2-1.8-2.4-2.8-3.5
	c-0.2-0.3-0.3-0.4,0.1-0.7c0.6-0.4,1.3-0.9,1.9-1.3c1.5-1,3-0.3,3.2,1.4C-191.3,422.3-191.6,422.6-191.8,423z"/>
<path class="st12" d="M-201.2,424.9c0.3,1,0.3,1-0.7,1.5c-0.4,0.2-0.7,0.4-1.1,0.5c-0.7,0.2-0.7,0.6-0.3,1.1
	c0.2,0.3,0.3,0.4,0.6,0.2c0.6-0.3,1.3-0.6,2-1c0.4-0.3,0.6-0.1,0.8,0.3c0.2,0.4,0,0.5-0.3,0.6c-0.7,0.3-1.3,0.6-2,0.9
	c-0.3,0.1-0.5,0.3-0.2,0.6c0.2,0.2,0.1,0.9,0.8,0.5c0.7-0.4,1.5-0.7,2.2-1.1c0.5-0.3,0.5,0.1,0.7,0.4c0.2,0.3,0.2,0.4-0.2,0.6
	c-1.1,0.5-2.1,1-3.1,1.5c-0.3,0.1-0.4,0.2-0.6-0.2c-0.7-1.4-1.5-2.8-2.3-4.2c-0.1-0.2-0.2-0.4,0.1-0.5
	C-203.7,426.1-202.4,425.5-201.2,424.9L-201.2,424.9z"/>
<path class="st12" d="M-188.9,422.5c-1.6-0.1-3-1.5-3-3.1c0-1.5,1.6-2.9,3.2-2.8c1.6,0.1,3.1,1.6,3,3.1
	C-185.8,421.2-187.4,422.5-188.9,422.5z"/>
<path class="st12" d="M-210.7,432.5c0,1.7-1.3,2.9-3.2,2.9c-1.6,0-2.9-1.4-2.9-3c0-1.7,1.3-2.9,3.1-2.9
	C-212,429.5-210.7,430.8-210.7,432.5z"/>
<path class="st12" d="M-224.8,436.8c-0.9,0-1.6-0.2-2.2-0.8c-0.1-0.2-0.5-0.4-0.2-0.6c0.2-0.2,0.5-0.6,1-0.1
	c0.5,0.6,1.5,0.7,2.2,0.4c0.3-0.1,0.5-0.3,0.5-0.7c0-0.3-0.3-0.5-0.6-0.6c-0.6-0.1-1.2-0.2-1.8-0.4c-0.8-0.2-1.3-0.7-1.3-1.4
	c0-0.7,0.4-1.3,1.2-1.6c1-0.3,2-0.3,2.9,0.3c0.2,0.1,0.6,0.4,0.4,0.6c-0.2,0.2-0.5,0.6-1,0.2c-0.5-0.4-1.2-0.5-1.8-0.2
	c-0.3,0.1-0.5,0.3-0.5,0.6c0,0.3,0.3,0.4,0.5,0.5c0.4,0.1,0.8,0.2,1.2,0.2c1.3,0.2,1.9,0.7,1.9,1.6c0,0.9-0.7,1.6-1.9,1.8
	C-224.4,436.7-224.6,436.7-224.8,436.8z"/>
<path class="st12" d="M-246.3,425.3c0.2,0,0.1-0.3,0.2-0.4c1.1,0.5,1.1,0.5,0.4,1.5c-0.4,0.6-0.8,1.2-1.2,1.9
	c-0.5,0.8-0.3,1.4,0.3,1.9c0.7,0.5,1.5,0.4,2-0.3c0.6-0.8,1.2-1.7,1.7-2.5c0.3-0.5,0.5-0.1,0.8,0c0.4,0.2,0.3,0.4,0.1,0.7
	c-0.6,0.8-1.1,1.6-1.6,2.4c-1.2,1.7-3.7,1.5-4.6-0.4c-0.4-0.8-0.2-1.6,0.3-2.3C-247.3,426.9-246.8,426.1-246.3,425.3z"/>
<path class="st12" d="M-218.7,430.6c0.4,0,0.8,0.1,1.1,0.3c0.2,0.1,0.7,0.1,0.5,0.5c-0.2,0.3-0.3,0.7-0.9,0.4
	c-0.8-0.4-1.7-0.2-2.3,0.4c-0.6,0.6-0.6,1.3-0.3,2c0.5,1.2,2,1.5,3.1,0.7c0.6-0.4,0.8,0,1.1,0.2c0.2,0.2,0,0.3-0.1,0.4
	c-0.9,0.9-2.8,1.1-4,0.4c-1.1-0.6-1.6-2.1-1.2-3.4C-221.4,431.3-220.1,430.5-218.7,430.6z"/>
<path class="st12" d="M-201.2,424.9c0.1-0.3,0.4-0.4,0.7-0.5c1-0.6,2-1.2,2.9-1.8c0.4-0.3,0.6-0.3,0.9,0.2c0.3,0.5-0.1,0.5-0.3,0.7
	c-1,0.6-1,0.6-0.4,1.6c0.5,0.8,1.1,1.6,1.6,2.4c0.2,0.3,0.4,0.5-0.1,0.7c-0.3,0.1-0.5,0.5-0.9,0c-0.6-1-1.3-2-2-3.1
	c-0.2-0.4-0.4-0.5-0.8-0.2c0,0,0,0-0.1,0C-200.1,425.4-200.7,425.7-201.2,424.9C-201.2,424.9-201.2,424.9-201.2,424.9z"/>
<path class="st13" d="M-213,428.8c-0.5,0.1-0.9,0.4-1.4,0.1c-0.1-0.1-0.3-0.1-0.3,0.1c-0.2,0.5-0.7,0.4-1.1,0.5
	C-214.8,427.5-214.7,427.7-213,428.8z"/>
<path class="st14" d="M-238,431.5c0.1-0.3,0.3-0.7,0.4-1c0,0,0.1,0,0.1,0c-0.1,0.5-0.2,0.9-0.4,1.3
	C-237.9,431.7-237.8,431.5-238,431.5z"/>
<path class="st15" d="M-208.6,398.7c0.2,0.6,0.2,1.1,0.1,1.7c0,0.8,0.2,1.1,1,1.1c0,0.1,0,0.1,0,0.2c-0.1,0.1-0.2,0.1-0.4,0.3
	c0.4,0.1,0.8,0.2,1.2,0.2c0.3,0,0.5-0.2,0.4-0.5c0-0.2,0.1-0.2,0.2-0.3c0.3-0.5,0.2-1.1,0.3-1.6c0.2-1,0.3-2.1,1-2.9
	c1.4-1.6,3.8-1.1,4.9,0.9c0.6,1.2,0.9,2.5,1,3.9c0.1,0.7,0.1,1.5,0,2.2c-0.2,2.4-2.1,3.8-4.4,3.3c-0.3-0.1-0.4-0.2-0.5-0.4
	c-0.5-0.6-1-1.2-1.4-1.8c-0.2-0.1-0.4-0.3-0.4-0.4c0.1,0.1,0.2,0.2,0.3,0.5c0.5,1,1,1.9,1.3,2.9c0.3,2.5-0.5,4.8-1.7,7
	c-0.8,1.5-1.9,2.8-3.2,4.1c-1,1-2,2-3.1,2.9c-2.4,1.9-5.1,3-8,4.1c-1.2,0.4-2.4,0.9-3.6,1.3c-0.7,0.3-1.5,0.5-2.2,0.6
	c-4.7,0.3-9.1-0.7-13.2-3.3c-1.8-1.1-3.1-2.8-3.7-4.8c-0.7-2.2-1.3-4.4-1.5-6.7c-0.1-2.1,0.2-4.2,1-6.2c0.9-2.1,2-4.1,2.8-6.2
	c1.3-0.8,2.8-0.6,3.6,0.4c0.2,1,0,2.1,0.3,3.1c0.1,0.5-0.4,0.8-0.7,1.3c0.4-0.1,0.5,0,0.5,0.4c0,1-0.1,2,0.2,3
	c0.1,0.4-0.2,0.6-0.6,0.8c-1.1,0.5-2.3,1-3.3,1.8c-0.9,0.7-1.7,1.6-2.4,2.5c-0.3,0.4-0.2,0.7,0.3,0.9c0.8,0.3,1.6,0.4,2.4,0.2
	c0.2-0.1,0.4-0.2,0.6-0.1c1.4,0.6,2.8-0.1,4.2,0.4c0.5,0.2,1.1,0,1.6,0.2c0.1,0,0.1,0.1,0.2,0.2c0.2,0.6,0.1,1.1,0.1,1.7
	c-0.1,0.7-0.5,1.3-1,1.8c-0.6,0.6-0.6,0.9,0.1,1.5c1,0.9,2.3,1.3,3.5,1.6c0.1,0,0.2,0,0.3,0.1c2.9,0.5,5.6,0,8.3-1
	c1.9-0.7,2.6-2.4,3.2-4.2c0.1-0.5,0.2-1,0.2-1.5c0.1-0.9,0.4-1.1,1.3-0.9c0.9,0.3,1.8,0.1,2.6-0.2c0.5-0.2,0.6-0.5,0.3-0.9
	c-0.3-0.6-0.7-1.2-1.2-1.6c-1.1-0.9-2.3-1.9-3.8-2.3c-0.5-0.1-0.7-0.5-0.6-0.9c0.3-1.3-0.1-2-1.6-2.7c-0.6-0.1-1.1-0.1-1.7,0
	c-0.3,0.1-0.6,0.2-0.9,0.2c-0.2,0-0.4,0-0.6,0.1c-0.2,0-0.3,0.1-0.5,0.2c0.3-0.1,0.6-0.2,0.9-0.3c0.4,0,0.8-0.1,1.3,0
	c0.4,0.1,0.8,0.1,1.1,0.4c1.2,1,0.6,2.6-0.5,3.2c-1.1,0.6-2.4,1-3.7,1c-0.3,0-0.7,0-1,0c-0.7-0.2-0.8-0.4-0.5-1
	c0.1-0.3,0.2-0.5,0.3-0.8c0.2-0.7-0.3-0.5-0.5-0.3c-1,0.6-2.2,0.8-3.4,0.8c-2.8,0.1-4.4-1.7-4.2-4.2c0-0.2,0-0.4,0-0.6
	c0.6-2,3.1-3.2,5.1-2.3c1.5,0.6,2.7,1.6,4,3c-0.3-0.6-0.6-0.9-0.9-1.3c-0.2-0.3-0.5-0.7,0-1c1.2-1,2.6-0.7,4-0.9
	c0.4,0,0.6,0.3,0.8,0.6c0.1,0.2,0,0.6,0.5,0.6c0.5,0.6,0.5,0.9-0.1,1.8c1.6-1,3.1-1.7,4.9-1.7c1.8-0.1,3.5,0.4,4.9,1.6
	c-0.6-0.6-0.8-1.2-0.6-2c0.1-0.5,0-1.1,0.1-1.6c0-0.1,0.1-0.2,0.1-0.3c-0.1-1.8,1.5-2,2.6-2.7c0.3-0.2,0.5,0,0.7,0.3
	c0.2,0.3,0.1,0.6,0.2,0.9C-208.8,399.5-209,399.1-208.6,398.7z"/>
<path class="st16" d="M-229.7,360.1c0.3-0.4,0.7-0.9,1-1.3c0.4-0.3,0.7-0.7,1.1-1.1c0.7-0.5,1.4-0.5,2,0.2c2.6,2.7,4.9,5.6,7.7,8.2
	c1.7,1.6,3.5,2.9,5.7,3.7c0.4,0.1,0.6,0.5,1,0.5c0.3-0.2,0-0.7,0.4-0.8c0.4-0.2,0.8-0.1,1.3,0c2.4,0.8,4.9,1,7.4,1.1
	c0.3,0,0.6,0,0.9-0.1c0.8-0.1,1.6-0.1,2.4,0.3c0.7,1.8,1.6,3.5,1.9,5.4c0.3,0.2,0.4,0.5,0.2,0.9c-0.1,0.1-0.3,0.1-0.3,0
	c-0.5-0.6-1.1-0.5-1.7-0.5c-4.6,0.2-8.9-1.2-13.2-2.6c-2-0.7-4.1-1.3-6.1-2.2c-2.9-1.2-5.7-2.7-8.1-4.9c-0.8-0.7-1.4-1.5-2.1-2.4
	c-0.4-0.6-0.9-1.1-1.4-1.7c-0.5-0.6-1.3-0.6-2-0.5c-0.3,0.1-0.7,0.4-0.9-0.1c1.1-0.5,2.2-0.9,3.5-0.9c0.9-0.1,1.7-0.1,2.6,0
	c0.6,0.1,1.2,0.3,1.7,0.4c0.3,0.1,0.6,0.2,0.8,0.1c-0.5-0.4-1-0.9-1.7-1c-1.1-0.7-2.4-0.7-3.7-0.6
	C-229.6,360.5-229.7,360.3-229.7,360.1z"/>
<path class="st17" d="M-232.6,362.5c0.4,0.3,0.7,0,1-0.1c0.9-0.2,1.6,0,2.3,0.8c1.2,1.3,2.1,2.8,3.5,4c1.2,1.1,2.6,2,4,2.8
	c2.8,1.6,5.9,2.6,9,3.7c1.8,0.6,3.7,1.3,5.6,1.7c2.8,0.7,5.6,1.3,8.5,1.1c0.8-0.1,1.5,0,2,0.7c0.2,0.1,0.3,0.1,0.2,0.3
	c-0.1-0.3,0-0.7-0.1-1.1c0-0.6-0.1-1.1-0.1-1.7c0-0.1-0.1-0.2,0.1-0.3c0.1-0.1,0.2,0.1,0.3,0.1c1.4,1.5,2.9,3,3.4,5.1
	c0,0-0.1,0.1-0.1,0c-0.8-0.7-1.7-0.5-2.6-0.4c-2.3,0.1-4.5-0.4-6.8-1c-3.9-1-7.7-2.1-11.5-3.3c-2.1-0.7-4.2-1.5-6.3-2.2
	c-0.8-0.3-1.6-0.7-2.5-0.4c-0.2,0.1-0.4,0-0.3-0.3c0.5-0.3,1-0.4,1.5-0.9c-1,0.1-1.8,0.1-2.6,0.2c-0.9,0.1-1.8,0-2.7-0.2
	c-1.3-0.3-1.7-0.8-1.8-2.1c0-0.3,0.1-0.7-0.3-0.9c-0.4-0.1-0.6,0.2-0.8,0.4c-0.5,0.6-1.1,1.1-1.5,1.8c-0.3,0.7-0.6,1.3-1.2,1.7
	c-1.1-0.8-2.5-0.8-3.7-1.3c-0.4-0.2-0.5,0-0.5,0.4c0,0.3,0.1,0.6,0.1,0.9c0,0.3-0.1,0.5-0.4,0.1c-0.7-1.6-0.9-3.4-0.7-5.1
	c0.1-1,0.7-1.8,1.4-2.5C-235.2,363.6-234,362.8-232.6,362.5z"/>
<path class="st18" d="M-200,390.1c-0.2,0-0.4,0-0.5,0c-0.3,0.1-0.4,0-0.3-0.2c0.2-0.8-0.4-1.3-0.9-1.7c-1.3-1.3-3-2-4.7-2.6
	c-1.3-0.5-2.7-0.9-4.1-1.3c-0.3-0.1-0.5-0.1-0.8-0.1c-0.2,0-0.5,0.1-0.6-0.2c-0.3-0.8-0.3-1.6-0.4-2.4c-0.1-0.4,0.3-0.4,0.5-0.4
	c0.9-0.2,1.8-0.5,2.7-0.9c0.2-0.3,0.7-0.3,1-0.5c0.2-0.1,0.5,0,0.5-0.4c0.5-0.3,1-0.1,1.5,0c3.4,1.1,6.8,2.3,10,3.9
	c0.7,0.3,1.3,0.6,2,0.8c1.1,0.3,1.2,0.6,0.6,1.6c-0.1,0.1-0.1,0.2-0.1,0.3c-0.8,1.1-2,1.7-3.2,2.1c-0.3,0.2-0.6,0.3-0.8,0.3
	c0.3-0.1,0.7-0.1,1.2-0.1c0.8-0.1,1.5-0.3,2.2-0.8c0.5-0.3,0.7-0.3,0.8,0.2c0.1,0.2,0.2,0.5,0.2,0.7c0.1,1,0.3,1.9-0.4,2.8
	c0.4-0.4,0.5-1,0.7-1.5c0.1-1.1,0.4-2.2-0.1-3.3c1.5,1.2,0.7,5.2-1.2,6.5c-1-1.6-2.5-2.4-4.3-2.7C-199,389.9-199.5,390.3-200,390.1z
	"/>
<path class="st19" d="M-193.6,386c-0.2-0.4,0.2-0.5,0.2-0.8c0.1-0.4,0-0.7-0.4-0.7c-2.6-0.6-4.8-2.1-7.2-3c-1.9-0.7-3.8-1.3-5.7-2
	c-0.4-0.1-0.8-0.2-1.1,0.1c-0.3,0.3-0.6,0.4-1.1,0.3c0-0.5-0.3-0.7-0.7-0.8c-2.3-0.6-4.5-1.3-6.7-2c-2.2-0.6-4.3-1.3-6.4-2
	c-1.1-0.3-1.1-0.4-1.9,0.7c-0.1-0.8-0.1-1.4,0-2.1c0.2-1.3,0.2-1.3,1.6-1.7c0,0.1,0.1,0.2,0.1,0.2c0.9-0.5,1.8,0,2.6,0.3
	c4.6,1.7,9.3,3.3,14,4.5c1.8,0.5,3.5,1,5.3,1.4c2.2,0.5,4.4,0.9,6.7,0.4c0.7-0.1,0.9,0.5,1.4,0.7c0.3,0.1,0.1,0.4,0.3,0.6
	c0.8,0.8,0.7,1.7,0.6,2.7C-192.3,384-192.7,385.1-193.6,386z"/>
<path class="st20" d="M-232.2,372c0.4-0.5,0.6-1.2,1.2-1.6c0.5,0.1,0.6-0.3,0.9-0.5c0.2-0.1,0.4-0.4,0.7-0.5
	c0.2,2.1,1.7,2.6,3.5,2.8c0.6,0.1,0.7,0.2,0.5,0.8c-1,3.6,1.2,6.2,3.7,7.4c1.3,0.6,2.8,0.9,4.2,1.1c0.2,0,0.4,0.1,0.5,0.2
	c-1,0.2-2-0.1-2.9-0.1c2,0.5,3.9,0.9,6,0.7c0.5-0.1,0.7,0.1,0.8,0.6c0,0.6,0.2,1.1,0.3,1.7c-4.4-2.1-9-2.5-13.7-2.5
	c-0.1,0-0.2,0-0.2-0.2c0.1,0,0.1-0.1,0.2-0.1c0.1,0,0.1,0,0.2,0c-2.5-0.7-4.8-1.7-6.2-3.9c-0.9-1.8-0.7-3.6,0-5.3
	C-232.5,372.4-232.4,372.1-232.2,372z"/>
<path class="st21" d="M-211.1,370.5c-0.1,0.2-0.3,0.2-0.4,0.1c-1.3-0.9-2.9-1.4-4.2-2.4c-0.8-0.6-1.6-1.2-2.4-1.9
	c-2-1.8-3.7-3.8-5.5-5.8c-0.8-0.8-1.6-1.6-2.3-2.5c-0.5-0.6-1.5-0.4-2.2,0.4c-0.2,0.2-0.3,0.5-0.7,0.5c0.6-0.9,1.3-1.7,2.4-2
	c0.8-0.3,1.7-0.3,2.6-0.3c0.3,0,0.5,0,0.8,0c-0.8,0-1.6-0.1-2.5,0c-0.2,0-0.3,0.1-0.5,0c0-0.3,0.3-0.4,0.5-0.5
	c0.9-0.4,1.8-0.5,2.8-0.3c1.9,0.5,3.5,1.6,4.9,2.9c2.3,2.2,4.2,4.7,5.4,7.7c0.4,1.1,0.7,2.2,1.1,3.3
	C-211.1,369.8-211,370.1-211.1,370.5z"/>
<path class="st22" d="M-208.6,398.7c0,0.5,0,0.9,0,1.4c-0.1,0-0.2,0-0.2-0.1c-0.4-1.3-0.4-1.3-1.6-0.7c-0.2,0.1-0.3,0.2-0.5,0.2
	c-0.8,0.1-1,0.7-1.1,1.4c0,0.3,0,0.5-0.3,0.7c-0.4-0.2-0.3-0.5-0.3-0.8c-0.3-1.9-1.3-3.3-3-4.1c-2.6-1.2-5.6,0.3-6.2,3.1
	c0,0.2-0.1,0.4-0.1,0.6c-0.1,0.5-0.1,1,0,1.4c0,0.6,0.3,1.1,0.2,1.7c0,0.1,0,0.2-0.1,0.2c-0.1,0-0.2-0.1-0.2-0.2
	c-0.2-1.1-1-1.1-1.9-1c-0.6,0.1-1.2,0.1-1.7,0.1c-0.4,0-0.6,0.2-0.8,0.5c-0.1,0.1-0.3,0.5-0.4,0c-0.2-0.2-0.2-0.4-0.1-0.7
	c0.3-1.7,0-3.2-1.1-4.5c-0.1-0.1-0.2-0.3-0.2-0.4c-0.1-0.9,0-1.1,0.9-1.1c0.5,0,0.9-0.1,1.3-0.3c0.9-0.4,1.8-0.6,2.7-0.6
	c0.5,0.1,0.9,0.1,1.3-0.2c1.2-0.7,2.4-1.2,3.7-1.3c0.9-0.1,1.8,0.1,2.7,0.2c1,0.1,2,0.3,3,0.4c0.9,0.1,1.1-0.2,0.9-1
	c-0.2-0.7-0.5-1.4-1.2-1.9c-0.2-0.1-0.4-0.3-0.5-0.4c-0.1-0.2,0-0.4,0.2-0.5c0.7,0.2,1.2,0.5,1.7,1.1c1.3,1.5,2.1,3.3,2.6,5.2
	C-208.7,397.6-208.9,398.2-208.6,398.7z"/>
<path class="st23" d="M-225.6,428c2.2-0.8,4.4-1.6,6.6-2.5c2.5-1,5-2,7.1-3.8c2.9-2.5,5.6-5.2,7-8.8c0.6-1.6,0.9-3.2,0.9-4.9
	c0.9,2.7,1.8,5.3,1.1,8.2c-1,4-3.5,6.7-7.3,8.3c-4,1.7-8.3,2.5-12.6,3.2C-223.7,427.8-224.6,428-225.6,428z"/>
<path class="st24" d="M-198.8,370.9c-0.1,0.1-0.2,0.2-0.4,0.1c-0.7-0.4-1.4-0.2-2.2-0.2c-1.6,0-3.2,0-4.8-0.3
	c-1.3-0.2-2.5-0.5-3.7-0.9c-0.4-0.1-0.7,0.1-1,0.1c-0.2-0.1-0.1-0.3-0.2-0.4c-0.2-2.5-0.8-4.9-2.3-7.1c2.1,0.2,3.9,0.6,5.8,1
	c1,0,1.8,0.5,2.5,1c0.4,0.3,0.8,0.5,1.4,0.6c0.7,0.1,1.3,0.8,1.9,1.3c0.2,0.2,0.3,0.4,0.5,0.6C-200.3,368-199.5,369.4-198.8,370.9z"
	/>
<path class="st25" d="M-208.7,392.2c-4.6-3.3-9.9-4.1-15.4-4.5c-0.6,0-1.1-0.1-1.7-0.1c-0.9-0.4-1.8-0.5-2.8-0.6
	c-1.7-0.3-3.5-0.4-5.2-0.5c-0.3,0-0.6,0-0.8-0.2c-0.2-0.3-0.2-0.6-0.2-0.9c0-0.6-0.1-1.2,0.1-1.8c0.4,0.1,0.4,0.1,0.5,0.8
	c3-0.8,6.1-0.5,9.1,0c3.3,0.5,6.5,1.3,9.8,2.1c0.1,0,0.2,0.1,0.4,0.1c1.2,0.3,2.5,0.3,3.5,1.3c1.2,1.3,2.7,2.3,4.2,3.1
	c0.7,0.3,1.3,0.7,1.7,1.4c0.1,0.3,0.3,0.6,0.1,0.9c-0.4,0.2-0.8-0.1-1.1-0.2C-207.2,392.4-207.9,392.2-208.7,392.2z"/>
<path class="st26" d="M-224.6,373.7c0,0.6,0,1.2,0,1.9c0.2-0.5,0.3-1,0.6-1c0.3-0.1,0.7,0.1,1,0.2c2.5,0.8,5.1,1.6,7.6,2.3
	c2,0.6,4,1.2,6.1,1.8c0.5,0.2,0.8,0.4,0.5,0.9c-0.1,0.4-0.5,0.2-0.8,0.3c-3.5,0.8-7,0.9-10.4-0.1c-1.7-0.5-3.1-1.4-4.1-2.9
	C-224.7,376.1-224.9,374.9-224.6,373.7z"/>
<path class="st27" d="M-213.2,390.8c-0.1,0.1-0.1,0.3-0.2,0.4c-0.2,0.2-0.4,0.1-0.6,0c-1.1-0.4-2.2-0.6-3.4-0.8
	c-1.4-0.3-2.9-0.3-4.3,0.3c-0.7,0.3-1.1,0.9-1.3,1.6c-0.2,0.5-0.1,1.1-0.4,1.6c-0.4,0.2-0.5-0.1-0.5-0.3c-0.1-0.2,0-0.5-0.1-0.8
	c-0.5,0.6-1.2,0.9-1.7,1.5c-0.2,0.2-0.4,0.3-0.6,0.1c-0.2-0.3-0.2-0.6-0.3-0.9c-0.3-2.2-1.1-3-3.3-3.1c-2.1-0.1-4.1,0.2-6,0.9
	c-0.8,0.3-1.4,0.8-1.7,1.6c-0.1,0.2-0.2,0.4-0.4,0.5c-0.1,0-0.2-0.1-0.3-0.2c-0.1-0.2,0-0.3,0-0.5c-0.3-1.8,0.8-2.6,2.2-3.2
	c0.4-0.2,0.8-0.3,1.1-0.5c1.3-0.5,2.7-0.6,4-0.6c5.4-0.2,10.8,0.1,16,1.7C-214.3,390.3-213.7,390.5-213.2,390.8z"/>
<path class="st28" d="M-226.2,394.5c0.7-0.5,1.3-1.1,2-1.6c0.1-0.1,0.1-0.4,0.4-0.3c0.2,0.1,0.1,0.3,0.1,0.5c0,0.3-0.1,0.7,0.3,1
	c0.2,0.5,0,1.1,0,1.6c0,0.2-0.1,0.3-0.3,0.3c-0.8-0.2-1.4,0.2-2.1,0.4c-0.5,0.2-1,0.4-1.5,0.4c-1,0-1,0-1,0.9
	c-0.2,0.1-0.4-0.1-0.6-0.2c-2.1-1.8-5.6-0.7-6.8,1.6c-0.4,0.7-0.6,1.4-0.9,2.1c-0.6-0.8-1.6-0.7-2.4-0.8c-0.3-0.1-0.4,0.2-0.6,0.3
	c-0.2,0.1-0.3,0.3-0.5,0.1c0.4-1.2,0.8-2.5,0.9-3.8c0.1-0.8,0.3-1.5,0.5-2.3c0.1-0.5,0.3-0.5,0.6-0.1c0.4,0.4,0.8,0.3,1.2,0.2
	c1.6-0.2,3.2-0.5,4.8-0.5c1.6,0,3.1,0.4,4.5,1.3c0.9,0.6,1,0.5,1.1-0.5C-226.4,394.8-226.3,394.6-226.2,394.5z"/>
<path class="st29" d="M-211.4,387.6c-0.1,0.2-0.3,0.1-0.4,0c-0.4-0.6-1.1-0.7-1.7-0.8c-2.6-0.4-5.1-1.2-7.6-1.7
	c-3.4-0.7-6.8-1.3-10.3-1.1c-0.8,0-1.5,0.2-2.3,0.4c-0.6,0.2-0.7,0-0.6-0.5c0-0.2,0-0.3-0.1-0.5c-0.3-0.4-0.4-0.9-0.2-1.3
	c1.1-0.3,2.1-0.5,3.2-0.3c0.1,0.1-0.1,0.3,0.2,0.3c0.4,0,0.8,0,1.2,0.1c0.9,0.1,1.9,0.1,2.8,0c0.3-0.1,0.5,0,0.7,0.2l0,0
	c0.4,0.1,0.8,0.2,1.2,0c1.2,0.2,2.3,0.2,3.5,0.4c2.5,0.4,4.9,1,7.2,2C-213.4,385.4-212.1,386.2-211.4,387.6z"/>
<path class="st30" d="M-212,384c1.9,0,3.6,0.7,5.3,1.3c1.8,0.6,3.6,1.4,5.1,2.8c0.5,0.5,1.3,1,0.8,1.9c0,0,0.1,0.1,0.2,0.1
	c-4.5,1.4-10.4-1.4-11.4-5.8C-212,384.2-212,384.1-212,384z"/>
<path class="st31" d="M-232.2,372c-0.3,0.9-0.8,1.8-0.8,2.8c-0.1,1.1,0.1,2.2,0.6,3.2c0.2,0.3,0.1,0.6-0.2,0.7
	c-0.9,0.2-1.8,0.7-2.8,0.6c-0.4-0.2-0.2-0.6-0.3-0.8c-0.1-2.1-0.4-4.1-1-6.1c0.2,0.1,0.4,0,0.2-0.2c-0.1-0.3-0.1-0.6-0.1-0.9
	c0-0.8,0-0.8,0.7-0.5c0.7,0.3,1.4,0.4,2.2,0.6C-233.2,371.3-232.6,371.5-232.2,372z"/>
<path class="st32" d="M-200,390.1c1.7-0.6,3.2,0.1,4.6,1c0.6,0.4,1.2,0.9,1.3,1.7c-1,0.9-2.2,1.2-3.5,1.1c-2.2,0-4-0.9-5.4-2.6
	c0.9-0.2,1.8-0.4,2.6-0.8C-200.2,390.5-200,390.4-200,390.1z"/>
<path class="st33" d="M-234.5,385.3c0,0.3,0,0.6,0,0.9c0.2,0.6,0,1.2,0,1.8c-1.3,0.4-2.6,0.8-4,1.4c0.5-1.5,1-2.7,1.5-4
	c0.6-0.3,1.2-0.3,1.8-0.4C-234.9,384.8-234.7,385-234.5,385.3z"/>
<path class="st34" d="M-234.5,387.9c-0.1,0-0.3-0.1-0.2-0.3c0.2-0.5,0-1,0.2-1.5c2.8,0,5.5,0.3,8.2,0.9c0.3,0.1,0.5,0.1,0.6,0.4
	c-2.1,0-4.2-0.1-6.3,0.1C-232.9,387.7-233.7,387.8-234.5,387.9z"/>
<path class="st35" d="M-201.3,366.7c-0.9-0.6-1.7-1.4-2.7-1.9c-0.1,0.2,0.1,0.2,0,0.4c-0.4-0.3-0.8-0.6-1.2-0.9
	c-0.4-0.5-1-0.7-1.5-0.9c-0.2-0.1-0.5-0.2-0.7-0.4c-2.3-0.9-4.7-1.4-7-2.1c0.4-0.2,0.8-0.1,1.2,0c2,0.4,4.1,0.7,6.1,1.3
	C-204.6,363-202.7,364.5-201.3,366.7z"/>
<path class="st36" d="M-234.5,385.3c-0.7-0.4-1.3-0.1-2,0c-0.2,0-0.3,0.3-0.5,0c0.3-0.9,0.5-1.8,0.8-2.7c0.4-1.4,0.4-2.8,0.4-4.2
	c0.1,0.2,0.2,0.5,0.3,0.7c0.6,0.9,0.9,1.8,0.9,2.9c-0.1,0.5,0.2,0.9,0.2,1.3C-234.5,384-234.5,384.6-234.5,385.3z"/>
<path class="st37" d="M-206.9,398.6c-0.3,0.2,0,0.6-0.3,0.9c-0.4-0.4-0.2-1.1-0.6-1.4c-0.2-0.9-0.3-1.8-0.6-2.7
	c-0.2-0.5-0.5-1-0.5-1.7c0.6,0.4,0.7,1,1.1,1.5c0.2-0.2,0-0.5,0.2-0.7c0.7,0.4,1.1,1,1.7,1.5c0.1,0.1,0.1,0.2,0,0.3
	c-0.2,0.5-0.3,1-0.5,1.6C-206.7,397.9-206.5,398.5-206.9,398.6z"/>
<path class="st38" d="M-238.2,394.6c-0.1-0.1-0.2-0.3-0.3,0.1c-0.1,0.8-0.4,1.5-0.7,2.3c0-2-0.1-4.1,0.4-6.1
	c0.1-0.3,0.1-0.6,0.5-0.7c1.1-0.4,2.2-0.9,3.4-1.2c-0.9,0.5-1.7,1.1-2.6,1.6c-0.3,0.2-0.5,0.4-0.5,0.8c0.1,0.7-0.2,1.3,0,2
	C-237.8,393.9-237.9,394.3-238.2,394.6z"/>
<path class="st39" d="M-222.7,355.6c-1.1,0.1-2.3,0.1-3.2,0.9c-0.2,0.3-0.5,0-0.8,0.1c-1.6,0.4-2.6,1.7-3.8,3
	C-229,356-225.8,354.5-222.7,355.6z"/>
<path class="st40" d="M-208.7,392.2c0.6-0.3,1.1-0.1,1.6,0.1c0.5,0.2,1,0.5,1.6,0.6c0.5,0.5,0.5,1.6,0,2.1c-0.8-0.4-1.2-1.2-2-1.6
	C-207.9,393-208.2,392.5-208.7,392.2z"/>
<path class="st41" d="M-205.4,394.9c0.4-0.7,0.2-1.4,0-2.1c0-0.8-0.5-1.3-1.1-1.7c-0.2-0.2-0.4-0.3-0.6-0.5c0.9,0.2,1.7,0.5,2.6,0.6
	c0.3,0,0.3,0.2,0.3,0.5c-0.2,1-0.5,2.1-0.8,3.1C-205.1,395.1-205.2,395.3-205.4,394.9z"/>
<path class="st42" d="M-192.1,382.8c0.1-1-0.3-1.8-0.6-2.7c0.2-0.8-0.2-1.5-0.4-2.1c-0.3-0.9-0.8-1.6-1.3-2.4
	C-192.6,376.6-191.4,380.6-192.1,382.8z"/>
<path class="st43" d="M-200.9,408.1c-0.4,0.5-0.8,1-1.3,1.5c-0.3-0.4-0.4-0.9-0.7-1.5C-202.1,408.1-201.5,408.1-200.9,408.1z"/>
<path class="st44" d="M-226.6,382.3c-0.2,0-0.4-0.2-0.6-0.1c-0.6,0.1-1.2,0-1.9,0c-0.6-0.1-1.2-0.1-1.9-0.1c-0.2,0-0.4,0.1-0.3-0.3
	c0.3-0.2,0.6-0.2,0.9-0.2c0.9,0,1.8,0,2.7,0c0.3,0,0.6,0,0.9,0.2c0.1,0,0.1,0.1,0.2,0.1C-226.6,382.2-226.6,382.2-226.6,382.3z"/>
<path class="st45" d="M-207.7,398c0.8,0.2,0.5,0.9,0.6,1.4c-0.1,0.3,0,0.7-0.3,1.2C-207.6,399.6-207.7,398.8-207.7,398z"/>
<path class="st46" d="M-192.8,389.6c0,0.8-0.4,1.4-1.1,1.9c0.9-0.9,0.9-2.1,0.8-3.2C-192.8,388.7-193.2,389.3-192.8,389.6z"/>
<path class="st21" d="M-225.7,361.1c0.1-0.2,0.3-0.2,0.4-0.1c0.5,0.3,1,0.5,1.5,0.8c0.1,0.1,0.1,0.2,0,0.3c-0.3,0.1-0.5-0.1-0.7-0.3
	C-225,361.6-225.4,361.4-225.7,361.1z"/>
<path class="st47" d="M-206.9,398.6c0-0.2,0.1-0.5,0.1-0.7c0.1-0.5,0.3-0.3,0.5,0c-0.1,0.5-0.2,1-0.4,1.5c0,0-0.1,0-0.1,0
	C-206.8,399.1-206.8,398.8-206.9,398.6z"/>
<path class="st48" d="M-207.3,363c0.8,0.2,1.4,0.6,2.1,1.1c0.1,0.1,0.2,0.1,0.1,0.3c-0.8-0.5-1.6-0.8-2.5-1.2
	C-207.5,363.1-207.4,363.2-207.3,363z"/>
<path class="st49" d="M-226.6,356.6c0.2-0.2,0.5-0.1,0.8-0.1c0.1,0,0.3,0,0.4,0c0.5-0.1,1,0,1.5,0c0.1,0,0.2,0,0.2,0.2
	c-0.9,0.1-1.7,0.1-2.6,0.2C-226.4,356.6-226.5,356.6-226.6,356.6z"/>
<path class="st50" d="M-209.5,380.1c0.3-0.1,0.5-0.2,0.8-0.3c0.3-0.1,0.7-0.2,1-0.3c-0.3,0.6-1,0.5-1.5,0.7
	C-209.3,380.2-209.4,380.2-209.5,380.1z"/>
<path class="st17" d="M-226.6,361.6c-0.9,0-1.7,0-2.6,0C-228.3,361.3-227.4,361.3-226.6,361.6z"/>
<path class="st51" d="M-196.6,376.3c0.2,0.4,0.1,0.8,0.1,1.2c-0.1-0.1-0.2-0.3-0.3-0.4c0.1-0.3,0-0.6-0.1-0.9
	C-196.8,376.3-196.7,376.3-196.6,376.3z"/>
<path class="st49" d="M-196.3,388.2c-0.5,0.2-1,0.3-1.6,0.3c0.4-0.3,0.8-0.3,1.2-0.4C-196.7,388.3-196.5,388.2-196.3,388.2z"/>
<path class="st52" d="M-211.1,369.3c0.1,0.1,0.1,0.3,0.2,0.4c0,0.2,0,0.4,0.1,0.6c0,0.2-0.1,0.2-0.3,0.2c-0.1-0.3-0.1-0.7-0.2-1
	C-211.2,369.4-211.2,369.4-211.1,369.3z"/>
<path class="st21" d="M-229.7,360.1c0.1,0.1,0.2,0.3,0.3,0.4c-0.3,0.1-0.6,0.2-0.9,0.1C-230.1,360.4-229.9,360.3-229.7,360.1z"/>
<path class="st53" d="M-205.3,405c-0.2-0.3-0.5-0.7-0.7-1c0.4,0.2,0.7,0.5,0.9,0.8C-205.2,404.9-205.2,405-205.3,405z"/>
<path class="st54" d="M-224.6,361.9c0.2,0.1,0.5,0.2,0.7,0.3c0.1,0.2,0.1,0.3-0.1,0.3c-0.3-0.1-0.6-0.3-0.8-0.4
	C-224.8,362-224.6,362-224.6,361.9z"/>
<path class="st55" d="M-207.5,401.6c0,0,0-0.1,0-0.1c0.5,0,1,0,1.5-0.2c0,0.1-0.1,0.2-0.1,0.3C-206.6,402-207,402-207.5,401.6z"/>
<path class="st56" d="M-225.4,382.3c-0.4,0.5-0.8,0.1-1.2,0C-226.2,382.4-225.8,382.4-225.4,382.3z"/>
<path class="st57" d="M-234,431.8c0,0.5-0.5,0.9-1.1,0.9c-0.2,0-0.4-0.1-0.6-0.1c-1.1-0.3-1.1-0.3-0.8-1.4c0.1-0.5,0.3-0.6,0.8-0.5
	c0.3,0.1,0.7,0.2,1.1,0.3C-234.2,431.1-234,431.3-234,431.8z"/>
<path class="st58" d="M-229.9,431.9c0.2,0.7,0.4,1.3,0.6,1.9c0.1,0.4,0,0.5-0.4,0.4c-1.7-0.1-1.7-0.1-0.8-1.6
	C-230.3,432.5-230.1,432.2-229.9,431.9z"/>
<path class="st59" d="M-238.7,430.2c0,0.7-0.6,1.1-1.1,1c-0.3-0.1-0.5-0.2-0.8-0.3c-1-0.4-1-0.4-0.6-1.4c0.2-0.5,0.4-0.6,0.9-0.4
	c0.3,0.2,0.7,0.3,1.1,0.5C-238.9,429.7-238.7,430-238.7,430.2z"/>
<path class="st59" d="M-192.5,422c0,0.5-0.4,0.7-0.7,0.9c-1.2,0.9-1.2,0.9-2-0.3c-0.1-0.2-0.2-0.3,0-0.5c0.4-0.3,0.9-0.6,1.3-0.9
	C-193.2,420.9-192.5,421.4-192.5,422z"/>
<path d="M-188.7,421.4c-1,0-2.1-1-2.1-2c0-0.9,0.9-1.8,1.9-1.8c1.1,0,2.2,1,2.2,2.1C-186.8,420.5-187.8,421.4-188.7,421.4z"/>
<path d="M-211.8,432.6c0,1.1-0.8,1.8-2,1.8c-1,0-1.8-0.9-1.8-2.1c0-1.1,0.9-1.9,2-1.8C-212.6,430.6-211.8,431.5-211.8,432.6z"/>
<path class="st60" d="M-236.6,401.2c0.3-2,1.2-3.5,3-4.4c1.7-0.8,3.3-0.7,4.8,0.4c0.2,0.1,0.3,0.2,0.5,0.4c1.3,1.4,1.7,3,1.4,4.9
	c0,0.2,0,0.5,0,0.7c-0.2,0.3-0.2,0.6,0.1,0.9c0.3,0.4,0.6,0.8,0.9,1.3c0.1,0.2,0.4,0.4,0.1,0.5c-0.2,0.1-0.3-0.1-0.5-0.3
	c-1-1.1-2.1-2-3.4-2.7c-2-1-4.4-0.1-5.2,2c-0.3,1.2-0.3,2.4-0.2,3.5c0.1,1.5,1.1,2.3,2.6,2.5c1.8,0.3,3.4-0.2,4.8-1.4
	c0.2-0.2,0.3-0.4,0.6-0.4c0.2-0.1,0.5-0.1,0.3,0.3c-0.2,0.3-0.2,0.7-0.4,1.1c-0.3,0.5,0.3,0.4,0.5,0.5c0.1,0,0.2,0,0.4,0
	c0.9,0.1,1.7,0,2.6-0.1c0.8-0.2,1.6-0.4,2.3-0.8c0.3-0.2,0.7-0.4,0.9-0.8c0.5-0.7,0.4-1.4-0.3-2c-0.2-0.2-0.4-0.3-0.7-0.4
	c-0.3-0.1-0.7-0.2-1-0.3c-0.4-0.2-0.9,0.2-1.2-0.3c0.3,0.1,0.5-0.3,0.8-0.2c0.7-0.1,1.3-0.1,2,0c0.8,0.4,1.5,0.9,1.7,1.9
	c0.1,0.3,0.1,0.7-0.2,0.9c-0.2,0.2,0,0.6-0.3,0.8c-1.8,2.1-4.3,2.2-6.8,2c-0.2,0-0.5,0-0.6-0.2c-0.8-0.6-1.5-0.2-2.2,0
	c-1.6,0.5-3.2,0.5-4.7-0.3c-0.3-0.1-0.5-0.3-0.8-0.6c-0.8-0.8-0.8-0.7-1.9-0.3c-1.7,0.7-3.1,1.7-4.3,3.1c-0.2,0.2-0.6,0.4-0.4,0.8
	c0.1,0.1,0.2,0.2,0.3,0.4c0.2,0.5,0.5,0.1,0.8,0.1c0.2-0.1,0.4-0.1,0.6,0c0.8,0,1.6-0.2,2.3,0.2c0.2,0.1,0.4-0.1,0.5-0.1
	c0.1,0,0.2,0,0.3,0c0.5,0.2,1.1,0,1.6-0.1c0.2,0,0.4,0.1,0.5,0.3c0.4,0.3,0.8,0.2,1.2,0.3c0.4,0.1,0.6,0.3,0.7,0.6
	c0.3,1.4,0.2,2.6-0.8,3.7c-0.4,0.5-0.3,0.8,0.1,1.2c0.8,0.6,1.8,0.9,2.7,1.2c0.2,0.1,0.4,0.1,0.6,0.1c0.3,0.1,0.7,0.1,0.6,0.5
	c-0.1,0.4-0.5,0.3-0.7,0.2c-1.5-0.2-2.9-0.8-4.1-1.8c-0.7-0.6-0.6-1,0.1-1.6c0.5-0.4,0.7-1,1-1.6c0.1-0.6,0.1-1.3,0-1.9l0,0
	c-0.6-0.2-1.2,0-1.8-0.1c-1.3-0.4-2.7,0.3-3.9-0.4c-0.1-0.1-0.3,0-0.4,0c-1,0.5-2.1,0.3-3.1-0.1c-0.6-0.3-0.7-0.5-0.3-1
	c1.5-2.2,3.5-3.7,6-4.6c0.2-0.1,0.6-0.1,0.4-0.5c-0.4-1.1-0.3-2.3-0.2-3.5c-0.4,0-0.5,0.4-0.8,0.3c-0.1-0.4,0.3-0.6,0.5-0.8
	c0.3-0.4,0.5-0.7,0.3-1.2C-236.7,403-236.5,402.1-236.6,401.2z"/>
<path class="st61" d="M-219.9,409.7c0.1-0.3-0.2-0.6,0.3-0.7c0,0.5,0.3,0.7,0.7,0.9c2,0.8,3.7,2,4.9,3.9c0.5,0.8,0.4,1-0.5,1.3
	c-1,0.3-1.9,0.5-2.9,0.1c-0.5-0.2-0.7,0-0.8,0.5c-0.1,1.4-0.4,2.8-1.2,4c-0.5,0.8-1.1,1.6-2,1.9c-2.7,1.2-5.6,1.6-8.6,1.2
	c-0.1,0-0.1-0.1-0.2-0.1c0.1,0,0.3,0,0.4,0c0.1,0,0.3-0.1,0.2-0.2c0-0.1-0.1-0.2-0.2-0.2c-1,0-1.9-0.5-2.8-0.8
	c-0.4-0.1-0.7-0.3-1-0.6c-0.7-0.6-0.7-0.8,0-1.5c0.7-0.7,1.1-2.9,0.6-3.8c-0.3-0.4-0.9-0.3-1.4-0.4c-0.2,0-0.4,0.1-0.5,0
	c-0.2-0.2,0-0.2,0.1-0.2c0.5-0.3,1.2-0.2,1.8-0.5c0.3-0.1,0.6-0.2,0.8-0.4c0.3-0.2,0.5-0.4,0.8-0.6c0.3-0.2,0.5-0.2,0.5,0.3
	c0,0.2-0.2,0.3-0.2,0.5c0.6,0,0.8-0.5,1.3-0.7c0.1-0.1,0.2-0.1,0.3-0.1c0.1,0,0.1,0,0.2,0c0.6,0.6,0.9,0.6,1.6,0.1
	c0.1-0.1,0.2-0.2,0.4-0.2c0.1,0,0.1,0,0.2,0c0.4,0.1,0.7,0.5,1.1,0.6c0.1-0.2-0.1-0.3-0.1-0.5c0-0.5,0.3-0.6,0.6-0.3
	c0.3,0.3,0.6,0.6,1,0.8c0.6,0.4,1.3,0.6,2,0.5c0.2,0,0.4,0,0.3-0.3c0-0.1-0.1-0.2-0.1-0.3c-0.1-0.2-0.3-0.5,0-0.6
	c0.2-0.2,0.4,0.1,0.6,0.2c0.2,0.2,0.4,0.3,0.6,0.4c0.6,0.5,1.3,0.4,2,0.3c0.3,0,0-0.2,0-0.3c-0.1-0.3-0.5-0.6-0.2-0.8
	c0.4-0.3,0.6,0.3,0.9,0.4c0.3,0.2,0.6,0.4,0.9,0.5c0.5,0.3,1.1,0.3,1.7,0.2c0.3-0.1,0.5-0.1,0.5-0.5c0-0.3-0.3-0.5-0.4-0.8
	c-0.4-1-1.3-1.4-2.1-2c-0.5-0.3-1-0.5-1.5-0.7C-219.6,410.3-219.9,410.1-219.9,409.7z"/>
<path class="st62" d="M-221.8,403.5c-0.3-0.5-0.3-1.1-0.3-1.7c-0.1-0.5-0.1-1,0-1.5c0.2-2.2,1.9-3.8,3.7-4.2c2-0.4,4.2,0.7,5.2,2.4
	c0.6,1,0.7,2,0.9,3.1c0,0.8,0.1,1.6-0.2,2.4c-0.1,0.3,0.1,0.4,0.3,0.6c0.3,0.3,0.6,0.6,0.8,1.3c-3.6-3-7.1-2.4-10.7-0.1
	C-221.9,405-221.1,404.3-221.8,403.5z"/>
<path class="st23" d="M-226.9,409.4c-0.1-0.5-0.3-0.2-0.4-0.1c-0.8,0.8-1.7,1.4-2.8,1.7c-1.4,0.3-2.8,0.3-4.1-0.5
	c-0.4-0.2-0.7-0.7-0.9-1.1c-0.5-1.5-0.5-3,0.1-4.5c0,0.6-0.1,1.3,0,1.9c0.2,1.6,1.4,2.6,3.2,2.8c1.5,0.1,2.9,0.1,4.2-0.8
	c0.3-0.2,0.5-0.2,0.7,0C-226.6,408.9-226.7,409.2-226.9,409.4z"/>
<path class="st63" d="M-202,399.7c1.5,0.4,2.2,1.1,2.1,2.2c-0.2,1.7-0.4,2.9-2.3,3.1c0.7-0.6,1.4-1.1,1.3-2.1
	c0.2-1.4-0.8-2.2-1.9-2.2c-0.7,0-1,0.3-1,1c0,0.1,0,0.3-0.1,0.4c0,0.1,0,0.3,0,0.4c0,0.2-0.1,0.4-0.4,0.5c-0.2,0-0.4-0.1-0.5-0.3
	c-0.7-1.4,0.1-3.9,1.5-4.7c0.2-0.1,0.4-0.2,0.6-0.2c0.3,0,0.7-0.2,0.8,0.1c0.1,0.4-0.5,0.2-0.6,0.4c0,0,0,0,0,0.1
	c-0.3,0.3-0.8,0.5-0.7,0.9C-203,399.8-202.4,399.6-202,399.7z"/>
<path class="st23" d="M-221.8,406.9c0.9,0.3,1.4,0.7,1.5,1.4c0,0.8-0.4,1.4-1.1,1.9c-0.7,0.4-1.5,0.7-2.4,0.8
	c-0.9,0.1-1.9,0.1-2.8,0c-0.1,0-0.2,0-0.3-0.1c0.7-0.2,1.5,0,2.3-0.2c0.8-0.2,1.5-0.4,2.2-0.8C-221.1,409.2-220.9,408.1-221.8,406.9
	z"/>
<path class="st64" d="M-203.8,402.2c-0.4-1.2,0-1.7,1.3-1.6c1.4,0.1,2,0.9,1.7,2.4c0.1-0.7-0.3-1.1-0.9-1.3
	c-0.7-0.2-1.3-0.3-1.8,0.3C-203.6,402.1-203.7,402.2-203.8,402.2z"/>
<path class="st65" d="M-225.7,424.2c-1.2,0.7-2.3,1-3.5-0.1C-228,424.3-226.9,424.2-225.7,424.2z"/>
<path class="st66" d="M-207,403.4c-0.4-0.2-1.1,0.3-1.1-0.4c0-0.5,0.7-0.3,1-0.3c0.4,0,1.1-0.3,1.1,0.3
	C-205.9,403.7-206.7,403.3-207,403.4z"/>
<path class="st67" d="M-207.5,401.6c0.4,0,0.9,0,1.3,0c0.2,0.1,0.4,0.2,0.3,0.4c-0.1,0.2-0.3,0.3-0.5,0.3c-0.5,0-0.9,0-1.4,0
	c-0.2,0-0.5,0-0.5-0.3c0-0.3,0.2-0.3,0.5-0.3C-207.7,401.7-207.6,401.7-207.5,401.6z"/>
<path class="st68" d="M-202,399.7c-0.5,0-0.9,0-1.5,0c0.3-0.6,0.5-1.2,1.2-1.3c0,0.2-0.1,0.3-0.1,0.5
	C-202.6,399.3-202.5,399.6-202,399.7z"/>
<path class="st62" d="M-224,406.4c0.3,0.3,0.8-0.1,1.2,0.3c-0.5,0-1,0-1.4,0c-0.1,0-0.3,0.1-0.3-0.1
	C-224.4,406.4-224.2,406.3-224,406.4z"/>
<path class="st69" d="M-224.6,406.5c0.1,0,0.2,0.1,0.3,0.1c-0.4,0.1-0.8,0.3-1.2,0.4C-225.3,406.7-224.9,406.6-224.6,406.5z"/>
<path class="st62" d="M-221.2,406.2c-0.7,0-1.3,0-2,0C-222.5,406-221.8,405.9-221.2,406.2z"/>
<path class="st61" d="M-233.2,415.8c0.3,0.6,0.2,1.3,0,1.9C-233.1,417.1-233.1,416.5-233.2,415.8z"/>
<path class="st61" d="M-235,415.7c0.6,0.1,1.2-0.2,1.8,0.1C-233.8,415.7-234.4,416-235,415.7z"/>
<path class="st21" d="M-228.8,360.3c0.5,0,0.9,0,1.4,0c0,0,0,0,0,0.1C-227.8,360.4-228.3,360.4-228.8,360.3
	C-228.8,360.3-228.8,360.3-228.8,360.3z"/>
<path class="st56" d="M-226.8,381.9c-1.5,0-3,0-4.5,0c-0.1,0-0.1,0-0.2,0c-0.7-0.3-1.4,0.1-2.1,0.1c-0.4,0-0.8,0.1-1.1,0.1
	c-0.3-1-0.6-1.9-0.9-2.9c0.9-0.2,1.9-0.4,2.8-0.6c0.3-0.1,0.3-0.3,0.3-0.5c1.6,2.2,4,3.1,6.6,3.9
	C-226.3,381.9-226.5,381.9-226.8,381.9z"/>
<path class="st39" d="M-223.7,356.6c-0.6-0.2-1.2,0-1.7-0.2c0.8-0.2,1.7-0.2,2.7,0C-223.2,356.6-223.5,356.6-223.7,356.6z"/>
<path class="st62" d="M-223.4,395.6c-0.3-0.5,0-1.1,0-1.6c0.1-0.5,0.2-1,0.3-1.5c0.2-1.1,0.9-1.9,2-2.2c1.4-0.4,2.8-0.4,4.3,0
	c1.2,0.3,2.4,0.5,3.5,0.9c1,0.5,1.6,1.4,1.9,2.5c0.2,0.9-0.1,1.3-1,1.2c-1.5-0.2-3-0.5-4.5-0.6c-2-0.2-3.7,0.4-5.3,1.4
	C-222.7,396-223.1,396.2-223.4,395.6z"/>
<path class="st15" d="M-222.1,400.3c0,0.5,0,1,0,1.5C-222.3,401.3-222.3,400.8-222.1,400.3z"/>
<path class="st70" d="M-238.2,394.6c0.1-0.4,0.1-0.8,0.2-1.2c0.4-1.3,1.3-2,2.5-2.4c2-0.6,4.1-1,6.3-0.7c1.9,0.3,2.6,0.9,2.9,2.8
	c0.1,0.4,0.1,0.9,0.2,1.3c0,0.4,0,0.8,0,1.2c-0.1,0.5-0.5,0.7-0.9,0.4c-2-1.5-4.3-1.9-6.8-1.5c-1.1,0.2-2.2,0.3-3.3,0.5
	C-237.6,395.1-238,395.2-238.2,394.6z"/>
<path class="st56" d="M-229.1,382.2c0.6,0,1.2,0,1.9,0c-1,0.2-1.9,0.2-2.9,0C-229.8,382.1-229.4,382.1-229.1,382.2z"/>
<path class="st25" d="M-229.1,382.2c-0.3,0-0.7,0-1,0c-0.4-0.1-0.9,0.1-1.3-0.1c-0.2-0.1-0.2-0.2,0-0.2c0.1,0,0.1,0,0.2,0
	C-230.6,382.2-229.8,381.9-229.1,382.2z"/>
<path class="st71" d="M-227.7,403c-0.4-0.3-0.6-0.5-0.8-0.6c-0.7-0.4-1.3-0.7-1.3-1.7c0-1.1-1.2-1.7-2.3-1.5
	c-1.1,0.2-1.8,1.2-1.6,2.2c0.1,0.4,0,0.6-0.4,0.7c-0.6,0.3-1,0.8-1.5,1.4c0-1.8,0.1-3.4,1.2-4.8c1-1.1,2.3-1.9,3.8-1.4
	c1.6,0.4,2.5,1.7,2.8,3.3C-227.6,401.4-227.6,402.2-227.7,403z"/>
<path class="st62" d="M-227.2,413.5c-0.1,0-0.2,0.1-0.3,0.1c-0.5-0.3-1-0.6-1.5-0.1c-0.1,0.1-0.2,0-0.3-0.1c0,0-0.1,0-0.1,0
	c-0.1-0.3,0.1-0.5,0.1-0.8c0.2-0.7,0.1-0.8-0.6-0.7c-1.2,0.3-2.4,0.3-3.6,0c-0.7-0.2-1.4-0.5-1.9-1.1c-0.4-0.5-0.8-0.5-1.4-0.2
	c-1.3,0.6-2.5,1.2-3.4,2.3c-0.3,0.3-0.5,0.6-0.9,0.8c-0.1,0-0.1,0-0.2,0c-0.2-0.1-0.2-0.2-0.1-0.4c1.3-1.8,3.2-2.8,5.2-3.6
	c0.3-0.1,0.6-0.1,0.8,0.2c1.5,2,4.8,1.9,6.7,0.9c0.4-0.2,0.6-0.2,0.9,0.1c0.3,0.3,0.6,0.3,0.9,0.4c2,0.3,3.9,0.2,5.6-0.8
	c0.5-0.3,0.7-0.9,1.3-1c0.2,0.3,0.5,0.4,0.9,0.6c1.3,0.5,2.4,1.2,3.3,2.2c0.2,0.2,0.2,0.4,0.2,0.6c-0.4,0.1-0.6-0.1-0.8-0.4
	c-0.9-0.9-1.9-1.6-3.2-2c-0.3-0.1-0.6-0.1-0.9,0.2c-1.1,0.9-2.3,1.3-3.7,1.3c-1,0-1.9,0-2.9-0.2c-0.7-0.1-0.7,0-0.5,0.6
	C-227.3,413-227,413.2-227.2,413.5z"/>
<path class="st72" d="M-241.2,413.8c0,0,0.1,0,0.1,0c0.9-0.2,1.8-0.4,2.5,0.4c-0.3,0.6-0.8,0.6-1.4,0.7c-0.2,0-0.5,0-0.7,0
	c-0.3,0.2-0.5,0.1-0.7-0.2c-0.1-0.1-0.2-0.2-0.3-0.3C-241.8,414-241.5,413.9-241.2,413.8z"/>
<path class="st73" d="M-231.9,414.2c-0.8,0.5-1.7,0.8-2.7,0.7c-0.1-0.1-0.3-0.2-0.4-0.3c0.1-0.3,0.3-0.5,0.6-0.6
	c0.7-0.1,1.3,0,2-0.2C-232.3,413.9-232,413.8-231.9,414.2z"/>
<path class="st61" d="M-239.9,414.8c0.5-0.1,0.9-0.4,1.3-0.6c0.1-0.3,0.3-0.4,0.6-0.6c0.2-0.1,0.4-0.3,0.6-0.1
	c0.2,0.2,0.1,0.4,0,0.6c-0.5,0.6,0.4,0.5,0.5,0.8c-0.2,0.3-0.5,0.4-0.7,0.2c-0.7-0.4-1.4-0.3-2.1-0.1
	C-239.8,414.9-239.9,414.9-239.9,414.8z"/>
<path class="st74" d="M-237,414.8c-0.1,0-0.3,0-0.4-0.1c-0.2-0.1-0.5,0-0.5-0.3c-0.1-0.2,0.2-0.3,0.4-0.5c0.5-0.2,1.1-0.1,1.6-0.1
	c0.2,0,0.4,0.1,0.5,0.4c-0.3,0.5-0.7,0.5-1.2,0.5C-236.8,414.8-236.9,414.8-237,414.8z"/>
<path class="st61" d="M-236.7,414.8c0.4-0.2,0.8-0.3,1.2-0.5c0.1-0.2,0.3-0.4,0.5-0.6c0.1-0.1,0.3-0.3,0.5-0.1
	c0.2,0.2,0.1,0.4-0.1,0.6c-0.1,0.1-0.3,0.3-0.4,0.4C-235.6,414.8-236.1,415.2-236.7,414.8z"/>
<path class="st61" d="M-226.6,411c0.9,0,1.9,0,2.8,0C-224.8,411.2-225.7,411.3-226.6,411z"/>
<path class="st61" d="M-241.4,414.7c0.2,0.1,0.5,0.1,0.7,0.2c-0.3,0.6-0.6,0.3-0.9,0C-241.7,414.8-241.5,414.7-241.4,414.7z"/>
<path class="st61" d="M-241.2,413.8c-0.2,0.2-0.3,0.4-0.5,0.6c-0.3-0.3-0.3-0.4,0.3-0.9C-241.4,413.6-241.3,413.8-241.2,413.8z"/>
<path class="st75" d="M-234.7,414.2c0-0.2,0.3-0.3,0-0.5c-0.3,0.2-0.4,0.7-0.9,0.7c-0.4-0.4-1-0.1-1.4-0.2c-0.2,0-0.4-0.1-0.6-0.1
	c0-0.2,0.1-0.3,0.1-0.6c-0.4,0.3-0.8,0.5-1.2,0.7c-0.7-0.5-1.6-0.3-2.5-0.5c1.2-1.5,2.6-2.6,4.4-3.3c0.6-0.2,1-0.2,1.5,0.3
	c0.7,0.8,1.7,1.2,2.8,1.2c1,0.1,2,0.1,3-0.3c0.3-0.1,0.5-0.1,0.5,0.3c0,0.6-0.2,1-0.4,1.4c-0.1,0-0.1,0.1-0.2,0.1
	c-0.4,0-0.8,0.5-1.3,0.1c-0.1-0.1,0.1-0.5-0.3-0.2c-0.3,0.2-0.4,0.5-0.8,0.7c-0.3-0.3-0.6-0.1-0.9,0
	C-233.5,414.2-234.1,414.2-234.7,414.2z"/>
<path class="st76" d="M-223.8,418.2c1.5-0.1,2.9-0.6,4.5-1c-0.1,0.7-0.4,1.3-0.8,1.9c-0.7,0.6-1.4,1-2.3,1.2c-2.2,0.7-4.5,1-6.8,0.8
	c-1.2-0.1-2.4-0.5-3.5-1.1c-0.2-0.1-0.4-0.2-0.4-0.5c0.1-0.2,0.3-0.5,0.4-0.7c0.1-0.4,0.4-0.4,0.7-0.4c0.6,0.2,1.2,0,1.8,0.1
	c0.2,0,0.5,0,0.7,0c0.4-0.3,0.9-0.2,1.4-0.2c0.5,0,1,0,1.5,0c0.5,0,0.9,0,1.3-0.1C-224.7,418.3-224.3,418.1-223.8,418.2z"/>
<path class="st77" d="M-227.2,413.5c-0.1-0.4-0.4-0.7-0.5-1.1c-0.2-0.6,0.1-0.7,0.6-0.6c1.4,0.3,2.8,0.4,4.3,0.1
	c0.9-0.2,1.9-0.5,2.6-1.2c0.1-0.2,0.3-0.3,0.6-0.2c1.4,0.4,2.7,1.1,3.7,2.2c-0.2,0.2-0.1,0.4-0.1,0.6c0,0.2-0.1,0.3-0.2,0.3
	c0,0-0.6,0.3-0.6,0.3c-0.1,0-0.1,0-0.2,0c-0.4-0.2-0.8-0.3-1.2-0.1c-0.3-0.1-0.4-0.5-0.8-0.5c-0.1,0.3,0.2,0.5,0.3,0.7
	c-0.7,0.3-1.5-0.1-2.2,0.1c-0.5,0-0.6-0.6-1.1-0.7c-0.1,0.4,0.3,0.6,0.3,0.9c-0.9,0.3-1.8-0.1-2.6-0.2c-0.4-0.1-0.7-0.4-1-0.7
	c-0.4-0.5-0.4-0.2-0.5,0.2c-0.4,0.3-0.8-0.1-1.1,0C-227.1,413.5-227.1,413.5-227.2,413.5z"/>
<path class="st78" d="M-225,418.5c-0.5,0.2-0.9,0.2-1.4,0.1c-0.6-0.1-1.2,0-1.8,0c-0.5,0-1,0-1.5-0.2c-0.6-0.2-1.2-0.4-1.8-0.5
	c-0.6-0.1-0.8-0.4-0.7-1c0-0.2,0-0.4,0-0.6c0.3-0.2,0.6,0,0.9,0c3.5,0.7,6.9,0.3,10.3-0.8c0.3-0.1,0.6-0.1,0.9-0.2
	c0.2,0,0.3,0,0.5,0.1c0.2,0,0.5-0.1,0.5,0.2c0,0.3,0,0.5-0.4,0.7c-1.3,0.6-2.6,1.1-4,1.6c-0.1,0-0.2,0.1-0.3,0.1
	C-224.2,418.3-224.6,418.2-225,418.5z"/>
<path class="st76" d="M-220.2,415.4c-1.3,0.8-2.8,0.9-4.2,1.2c-1.3,0.2-2.6,0.4-4,0.3c-1.3-0.1-2.6-0.1-3.8-0.6
	c-0.2-0.5-0.1-0.8,0.5-0.8c0.7,0,1.3-0.3,1.9-0.5c1-0.4,2-0.4,3-0.1c0,0,0,0,0.1,0c1.9,0.4,3.7,1,5.6,0.4
	C-220.7,415.2-220.4,415.2-220.2,415.4z"/>
<path class="st79" d="M-233.1,419.6c1.1,0.8,2.4,1.2,3.8,1.3c2.5,0.2,4.9-0.2,7.3-1c0.7-0.2,1.1-0.8,1.8-0.9c-0.3,0.9-1,1.5-1.9,1.8
	c-3.2,1.2-6.5,1.3-9.8,0.3c-0.4-0.1-0.8-0.3-1.2-0.5C-233.6,420.3-233.7,420-233.1,419.6z"/>
<path class="st80" d="M-215.1,413.8c0.2,0.2,0.2,0.4-0.1,0.5c-0.8,0.3-1.6,0.4-2.3-0.1c-0.2-0.1-0.2-0.3-0.1-0.4
	c0.2-0.2,0.3-0.1,0.5,0l0,0c0.5,0.1,0.9-0.3,1.4-0.2C-215.5,413.6-215.2,413.5-215.1,413.8z"/>
<path class="st81" d="M-215.1,413.8c-0.5-0.2-0.9,0-1.4,0.1c-0.2,0-0.5,0.2-0.7-0.1c0.5-0.2-0.2-0.3,0-0.5c0.3-0.1,0.5,0.2,0.8,0.2
	c0.1-0.2-0.5-0.8,0.2-0.8c0.1,0.2,0.4,0.3,0.6,0.4C-215.4,413.3-215,413.5-215.1,413.8z"/>
<path class="st82" d="M-221.1,414.1c0.7-0.5,1.5-0.1,2.2-0.1c0.1,0.2,0.4,0.4,0,0.5C-219.7,414.6-220.4,414.7-221.1,414.1z"/>
<path class="st60" d="M-229.3,413.5c0.1,0,0.2,0,0.3-0.1c0.8-0.6,0.8-0.6,1.5,0.2C-228,414.3-228.8,414.3-229.3,413.5z"/>
<path class="st83" d="M-224.4,414.1c0.8-0.2,1.5,0,2.2,0.1c0.1,0,0.3,0,0.4,0c0.2,0.4-0.1,0.4-0.3,0.4
	C-223,414.8-223.8,414.6-224.4,414.1z"/>
<path class="st84" d="M-230.9,413.8c0.4,0.1,0.8-0.3,1.3-0.1c-0.3,0.2-0.5,0.5-0.9,0.7c-0.2,0.1-0.6,0.3-0.7,0.1
	C-231.4,414.2-231.1,413.9-230.9,413.8z"/>
<path class="st85" d="M-227,413.5c0.4-0.4,0.8,0.1,1.1,0c0.1,0.2,0.5,0.4,0.4,0.6c-0.2,0.3-0.6,0-0.8-0.1
	C-226.6,413.9-226.8,413.7-227,413.5z"/>
<path class="st86" d="M-229.7,418.4c1,0.1,2.1,0.2,3.1,0.1c0.1,0,0.2,0,0.2,0.2c-1,0-2,0.1-3,0
	C-229.5,418.5-229.6,418.4-229.7,418.4z"/>
<path class="st81" d="M-217.1,413.8c-0.3,0-0.6-0.1-0.4,0.4c-0.3,0-0.6-0.3-0.9-0.5C-218,413.2-217.5,413.5-217.1,413.8z"/>
<path class="st87" d="M-225,418.5c0.3-0.5,0.7-0.3,1.1-0.4c0,0.1,0,0.1,0,0.2C-224.2,418.4-224.6,418.5-225,418.5z"/>
<path class="st86" d="M-230.1,418.6c-0.6,0-1.2,0-1.8-0.1C-231.3,418.5-230.7,418.4-230.1,418.6z"/>
<path class="st71" d="M-215.2,402.9c0.4-0.7,0.6-1.4,0.3-2.1c-0.3-1-1-1.6-2-1.7c-1-0.2-1.8,0.2-2.4,1c-0.6,0.8-0.6,1.8-0.1,2.6
	c0.3,0.5,0.2,0.6-0.2,0.7c-0.5,0.1-0.9,0.4-1.4,0.6c-0.3-1.2-0.5-2.4-0.3-3.6c0.3-1.9,1.9-3.3,3.5-3.4c1.7-0.1,3.5,1.2,4.1,3
	c0.4,1.1,0.3,2.2,0.3,3.3c0,0.3-0.1,0.3-0.4,0.2C-214.1,403.3-214.6,403.1-215.2,402.9z"/>
<path class="st77" d="M-213.8,393.1c0.4,0.3,0.9,0.2,1.3,0.8c-3.4-0.5-6.6-1.3-9.7,0.6c0-0.6,0.5-0.5,0.6-0.9
	c-0.7,0.2-0.8-0.2-0.6-0.7c0.4-1.2,1.1-1.7,2.7-1.8c1.9-0.1,3.7,0.1,5.4,0.7c0.4,0.2,0.9,0.4,1.1,0.8c0.1,0.1,0.2,0.3,0.1,0.5
	c-0.1,0.1-0.3,0-0.4,0C-213.4,393-213.6,393-213.8,393.1z"/>
</svg>
